<?xml version="1.0" encoding="UTF-8"?>
<svg xmlns="http://www.w3.org/2000/svg" xmlns:xlink="http://www.w3.org/1999/xlink" width="1024" height="1024" viewBox="0 0 1024 1024">
<defs>
<g>
<g id="glyph-0-0">
<path d="M 571.390625 -357.375 L 812.03125 -599.039062 C 820.90625 -607.230469 825.34375 -617.128906 825.34375 -628.734375 C 825.34375 -640.339844 821.078125 -650.410156 812.542969 -658.945312 C 804.011719 -667.476562 793.941406 -671.742188 782.335938 -671.742188 C 770.730469 -671.742188 760.832031 -667.308594 752.640625 -658.433594 L 510.976562 -417.792969 L 269.3125 -658.433594 C 261.121094 -667.308594 251.050781 -671.742188 239.105469 -671.742188 C 227.15625 -671.742188 217.089844 -667.476562 208.894531 -658.945312 C 200.703125 -650.410156 196.609375 -640.339844 196.609375 -628.734375 C 196.609375 -617.128906 200.703125 -607.230469 208.894531 -599.039062 L 450.558594 -357.375 L 208.894531 -115.710938 C 200.703125 -107.519531 196.609375 -97.449219 196.609375 -85.503906 C 196.609375 -73.558594 200.703125 -63.488281 208.894531 -55.296875 C 217.089844 -47.105469 227.15625 -43.007812 239.105469 -43.007812 C 251.050781 -43.007812 261.121094 -47.105469 269.3125 -55.296875 L 510.976562 -296.960938 L 752.640625 -55.296875 C 760.832031 -47.105469 770.730469 -43.007812 782.335938 -43.007812 C 793.941406 -43.007812 804.011719 -47.105469 812.542969 -55.296875 C 821.078125 -63.488281 825.34375 -73.558594 825.34375 -85.503906 C 825.34375 -97.449219 820.90625 -107.519531 812.03125 -115.710938 Z M 571.390625 -357.375 "/>
</g>
</g>
</defs>
<g fill="rgb(0%, 0%, 0%)" fill-opacity="1">
<use xlink:href="#glyph-0-0" x="0" y="870.40625"/>
</g>
</svg>
